# xmcd
#
# Track frame offsets: 
#        150
#        11260
#        24653
#        36191
#        48804
#        61985
#        72844
#        87193
#        108195
#        125290
#        147195
#        162200
#
# Disc length: 2338 seconds
#
# Revision: 5
# Processed by: cddbd v1.5.2PL0 Copyright (c) Steve Scherf et al.
# Submitted via: ExactAudioCopy v1.0b1
#
DISCID=8f09200c
DTITLE=Chris LeDoux - Gold Buckle Dreams
DYEAR=1987
DGENRE=Country
TTITLE0=So You Want To Be A Cowboy
TTITLE1=A Cowboy's Got To Ride
TTITLE2=Born To Follow Rodeo
TTITLE3=He Rides The Wild Horses
TTITLE4=Bareback Jack
TTITLE5=Goin' And A Blowin'
TTITLE6=Our First Year
TTITLE7=National Finals Rodeo
TTITLE8=The Cowboy And The Hipppie
TTITLE9=Photo Finish
TTITLE10=It Ain't The Years, It's The Miles
TTITLE11=The Greatest Prize
EXTD=
EXTT0=
EXTT1=
EXTT2=
EXTT3=
EXTT4=
EXTT5=
EXTT6=
EXTT7=
EXTT8=
EXTT9=
EXTT10=
EXTT11=
PLAYORDER=
